PathFileType	4	(X/Y/Z)	 New Session 109.trc
DataRate	CameraRate	NumFrames	NumMarkers	Units	OrigDataRate	OrigDataStartFrame	OrigNumFrames
100	100	29	14	m	100	143	1141
Frame#	Time	C7			T8			IJ			PX			AA			AC			AI			TS			SC			GH			LE			ME			US			RS			
		X1	Y1	Z1	X2	Y2	Z2	X3	Y3	Z3	X4	Y4	Z4	X5	Y5	Z5	X6	Y6	Z6	X7	Y7	Z7	X8	Y8	Z8	X9	Y9	Z9	X10	Y10	Z10	X11	Y11	Z11	X12	Y12	Z12	X13	Y13	Z13	X14	Y14	Z14	
143	1.4300	0.019927	0.106819	0.159650	0.020269	-0.106159	0.233617	-0.002195	-0.001554	-0.003275	-0.001812	-0.145662	-0.066791	0.213554	0.012976	0.149965	0.165433	0.049254	0.074170	0.097622	0.031146	0.202449	0.099409	-0.087989	0.236719	0.022516	0.007134	0.000579	0.225711	0.022103	0.109089	0.291412	-0.271057	0.075421	0.220876	-0.304035	0.133133	0.315764	-0.538855	0.010941	0.243555	-0.538131	-0.026241	
144	1.4400	0.019893	0.106830	0.159685	0.020246	-0.106151	0.233634	-0.002240	-0.001491	-0.003254	-0.001851	-0.145652	-0.066781	0.213522	0.012977	0.149979	0.165410	0.049278	0.074186	0.097583	0.031153	0.202473	0.099408	-0.087973	0.236807	0.022482	0.007159	0.000595	0.225695	0.022131	0.109121	0.291393	-0.271039	0.075403	0.220866	-0.304026	0.133125	0.315749	-0.538833	0.010909	0.243497	-0.538105	-0.026327	
145	1.4500	0.019861	0.106835	0.159716	0.020230	-0.106151	0.233649	-0.002269	-0.001433	-0.003245	-0.001889	-0.145641	-0.066775	0.213474	0.012967	0.149974	0.165378	0.049293	0.074198	0.097551	0.031163	0.202495	0.099397	-0.087966	0.236844	0.022451	0.007181	0.000600	0.225700	0.022163	0.109165	0.291366	-0.271027	0.075384	0.220851	-0.304021	0.133109	0.315748	-0.538816	0.010881	0.243483	-0.538089	-0.026389	
146	1.4600	0.019833	0.106830	0.159742	0.020216	-0.106161	0.233658	-0.002287	-0.001395	-0.003246	-0.001927	-0.145630	-0.066771	0.213423	0.012948	0.149961	0.165336	0.049289	0.074203	0.097528	0.031160	0.202509	0.099380	-0.087968	0.236847	0.022425	0.007192	0.000593	0.225699	0.022169	0.109184	0.291331	-0.271020	0.075363	0.220833	-0.304022	0.133084	0.315780	-0.538803	0.010859	0.243485	-0.538090	-0.026433	
147	1.4700	0.019809	0.106817	0.159765	0.020201	-0.106176	0.233663	-0.002304	-0.001379	-0.003250	-0.001964	-0.145621	-0.066766	0.213391	0.012931	0.149951	0.165295	0.049275	0.074200	0.097506	0.031147	0.202513	0.099363	-0.087973	0.236841	0.022395	0.007192	0.000590	0.225685	0.022158	0.109180	0.291288	-0.271019	0.075329	0.220812	-0.304028	0.133048	0.315847	-0.538793	0.010845	0.243489	-0.538103	-0.026466	
148	1.4800	0.019788	0.106802	0.159786	0.020184	-0.106191	0.233663	-0.002332	-0.001371	-0.003246	-0.002002	-0.145614	-0.066761	0.213383	0.012924	0.149955	0.165268	0.049265	0.074196	0.097481	0.031134	0.202514	0.099343	-0.087978	0.236838	0.022357	0.007183	0.000601	0.225668	0.022149	0.109172	0.291232	-0.271022	0.075271	0.220786	-0.304037	0.133005	0.315918	-0.538786	0.010833	0.243487	-0.538119	-0.026499	
149	1.4900	0.019765	0.106793	0.159810	0.020166	-0.106202	0.233662	-0.002372	-0.001363	-0.003231	-0.002040	-0.145608	-0.066754	0.213386	0.012924	0.149965	0.165248	0.049265	0.074198	0.097458	0.031128	0.202516	0.099315	-0.087983	0.236838	0.022316	0.007172	0.000617	0.225652	0.022144	0.109166	0.291160	-0.271027	0.075187	0.220756	-0.304045	0.132962	0.315950	-0.538784	0.010811	0.243479	-0.538133	-0.026532	
150	1.5000	0.019738	0.106793	0.159832	0.020151	-0.106209	0.233662	-0.002424	-0.001354	-0.003207	-0.002079	-0.145600	-0.066746	0.213374	0.012929	0.149965	0.165226	0.049272	0.074201	0.097441	0.031130	0.202521	0.099280	-0.087991	0.236824	0.022280	0.007174	0.000626	0.225637	0.022142	0.109157	0.291075	-0.271028	0.075090	0.220724	-0.304048	0.132923	0.315935	-0.538783	0.010776	0.243469	-0.538143	-0.026558	
151	1.5100	0.019709	0.106797	0.159849	0.020137	-0.106210	0.233666	-0.002486	-0.001349	-0.003182	-0.002118	-0.145592	-0.066736	0.213341	0.012937	0.149950	0.165199	0.049282	0.074198	0.097424	0.031137	0.202529	0.099243	-0.088003	0.236775	0.022253	0.007190	0.000628	0.225618	0.022141	0.109144	0.290990	-0.271020	0.075005	0.220693	-0.304046	0.132889	0.315892	-0.538778	0.010730	0.243464	-0.538146	-0.026569	
152	1.5200	0.019681	0.106800	0.159855	0.020127	-0.106209	0.233676	-0.002547	-0.001349	-0.003160	-0.002158	-0.145583	-0.066725	0.213300	0.012941	0.149923	0.165166	0.049287	0.074183	0.097404	0.031139	0.202530	0.099209	-0.088016	0.236677	0.022225	0.007210	0.000632	0.225598	0.022143	0.109127	0.290917	-0.271005	0.074948	0.220665	-0.304041	0.132859	0.315838	-0.538772	0.010681	0.243474	-0.538147	-0.026563	
153	1.5300	0.019659	0.106799	0.159848	0.020119	-0.106206	0.233686	-0.002594	-0.001353	-0.003150	-0.002198	-0.145574	-0.066713	0.213267	0.012937	0.149890	0.165129	0.049284	0.074160	0.097385	0.031136	0.202517	0.099185	-0.088030	0.236546	0.022187	0.007220	0.000641	0.225581	0.022148	0.109111	0.290867	-0.270988	0.074916	0.220644	-0.304036	0.132833	0.315792	-0.538769	0.010637	0.243494	-0.538152	-0.026551	
154	1.5400	0.019640	0.106795	0.159835	0.020110	-0.106204	0.233694	-0.002629	-0.001363	-0.003158	-0.002237	-0.145567	-0.066703	0.213251	0.012931	0.149849	0.165096	0.049276	0.074136	0.097369	0.031132	0.202490	0.099177	-0.088037	0.236444	0.022141	0.007205	0.000649	0.225572	0.022157	0.109094	0.290842	-0.270976	0.074896	0.220629	-0.304034	0.132809	0.315761	-0.538773	0.010606	0.243504	-0.538162	-0.026548	
155	1.5500	0.019624	0.106793	0.159824	0.020099	-0.106203	0.233694	-0.002675	-0.001374	-0.003181	-0.002276	-0.145560	-0.066696	0.213244	0.012927	0.149804	0.165069	0.049269	0.074115	0.097364	0.031130	0.202458	0.099187	-0.088031	0.236440	0.022098	0.007182	0.000652	0.225563	0.022172	0.109069	0.290829	-0.270971	0.074868	0.220618	-0.304034	0.132787	0.315741	-0.538780	0.010583	0.243494	-0.538175	-0.026562	
156	1.5600	0.019608	0.106792	0.159816	0.020087	-0.106202	0.233687	-0.002747	-0.001383	-0.003203	-0.002314	-0.145554	-0.066694	0.213238	0.012930	0.149763	0.165041	0.049266	0.074094	0.097364	0.031134	0.202435	0.099206	-0.088015	0.236534	0.022057	0.007179	0.000650	0.225547	0.022190	0.109029	0.290813	-0.270971	0.074825	0.220610	-0.304036	0.132763	0.315723	-0.538784	0.010561	0.243497	-0.538177	-0.026570	
157	1.5700	0.019591	0.106793	0.159809	0.020073	-0.106201	0.233675	-0.002845	-0.001386	-0.003212	-0.002350	-0.145548	-0.066696	0.213225	0.012941	0.149730	0.165012	0.049271	0.074076	0.097358	0.031142	0.202428	0.099218	-0.087994	0.236655	0.022017	0.007198	0.000640	0.225502	0.022203	0.108970	0.290797	-0.270972	0.074776	0.220605	-0.304037	0.132738	0.315703	-0.538781	0.010532	0.243528	-0.538164	-0.026563	
158	1.5800	0.019570	0.106795	0.159800	0.020057	-0.106199	0.233664	-0.002949	-0.001384	-0.003204	-0.002384	-0.145543	-0.066700	0.213205	0.012958	0.149699	0.164981	0.049284	0.074058	0.097338	0.031150	0.202432	0.099214	-0.087975	0.236732	0.021987	0.007223	0.000617	0.225416	0.022198	0.108887	0.290796	-0.270972	0.074743	0.220602	-0.304032	0.132716	0.315677	-0.538771	0.010494	0.243549	-0.538148	-0.026563	
159	1.5900	0.019547	0.106805	0.159789	0.020040	-0.106193	0.233656	-0.003034	-0.001382	-0.003187	-0.002417	-0.145540	-0.066703	0.213184	0.012977	0.149665	0.164944	0.049297	0.074030	0.097305	0.031159	0.202435	0.099195	-0.087961	0.236734	0.021971	0.007242	0.000582	0.225316	0.022172	0.108796	0.290811	-0.270971	0.074738	0.220601	-0.304024	0.132698	0.315642	-0.538761	0.010451	0.243540	-0.538134	-0.026584	
160	1.6000	0.019527	0.106822	0.159778	0.020024	-0.106183	0.233653	-0.003090	-0.001388	-0.003179	-0.002449	-0.145538	-0.066704	0.213162	0.012989	0.149632	0.164906	0.049303	0.073992	0.097273	0.031167	0.202425	0.099167	-0.087951	0.236672	0.021952	0.007249	0.000551	0.225253	0.022145	0.108731	0.290833	-0.270970	0.074753	0.220600	-0.304014	0.132685	0.315599	-0.538753	0.010410	0.243511	-0.538124	-0.026616	
161	1.6100	0.019510	0.106838	0.159766	0.020007	-0.106169	0.233652	-0.003121	-0.001399	-0.003182	-0.002481	-0.145539	-0.066700	0.213135	0.012991	0.149600	0.164875	0.049298	0.073949	0.097250	0.031175	0.202400	0.099136	-0.087944	0.236586	0.021926	0.007242	0.000536	0.225226	0.022127	0.108691	0.290856	-0.270969	0.074764	0.220594	-0.304004	0.132675	0.315552	-0.538749	0.010374	0.243484	-0.538111	-0.026645	
162	1.6200	0.019493	0.106843	0.159754	0.019988	-0.106152	0.233650	-0.003142	-0.001405	-0.003188	-0.002517	-0.145542	-0.066691	0.213105	0.012987	0.149567	0.164849	0.049290	0.073912	0.097237	0.031179	0.202368	0.099108	-0.087937	0.236526	0.021899	0.007230	0.000532	0.225218	0.022124	0.108664	0.290871	-0.270967	0.074752	0.220582	-0.303995	0.132664	0.315501	-0.538750	0.010345	0.243460	-0.538095	-0.026668	
163	1.6300	0.019475	0.106837	0.159737	0.019967	-0.106138	0.233645	-0.003168	-0.001399	-0.003189	-0.002557	-0.145548	-0.066681	0.213070	0.012988	0.149535	0.164825	0.049286	0.073888	0.097227	0.031181	0.202343	0.099088	-0.087930	0.236514	0.021872	0.007223	0.000528	0.225205	0.022131	0.108630	0.290870	-0.270958	0.074720	0.220559	-0.303986	0.132651	0.315441	-0.538756	0.010320	0.243408	-0.538079	-0.026699	
164	1.6400	0.019457	0.106826	0.159713	0.019944	-0.106129	0.233636	-0.003196	-0.001382	-0.003182	-0.002603	-0.145555	-0.066671	0.213029	0.012993	0.149507	0.164800	0.049290	0.073873	0.097211	0.031185	0.202327	0.099071	-0.087928	0.236518	0.021840	0.007227	0.000524	0.225179	0.022137	0.108582	0.290851	-0.270941	0.074680	0.220530	-0.303977	0.132634	0.315379	-0.538761	0.010297	0.243299	-0.538071	-0.026753	
165	1.6500	0.019441	0.106820	0.159686	0.019917	-0.106126	0.233624	-0.003225	-0.001359	-0.003173	-0.002652	-0.145562	-0.066665	0.212992	0.013002	0.149484	0.164773	0.049298	0.073860	0.097176	0.031193	0.202313	0.099050	-0.087935	0.236498	0.021807	0.007231	0.000519	0.225127	0.022130	0.108514	0.290818	-0.270921	0.074644	0.220498	-0.303968	0.132615	0.315326	-0.538763	0.010273	0.243149	-0.538076	-0.026823	
166	1.6600	0.019428	0.106823	0.159661	0.019891	-0.106127	0.233609	-0.003260	-0.001347	-0.003171	-0.002702	-0.145568	-0.066663	0.212968	0.013005	0.149462	0.164748	0.049305	0.073842	0.097134	0.031202	0.202294	0.099027	-0.087946	0.236457	0.021773	0.007226	0.000512	0.225067	0.022114	0.108446	0.290786	-0.270910	0.074614	0.220465	-0.303964	0.132593	0.315287	-0.538761	0.010248	0.243012	-0.538090	-0.026885	
167	1.6700	0.019416	0.106832	0.159643	0.019864	-0.106131	0.233594	-0.003313	-0.001356	-0.003185	-0.002752	-0.145574	-0.066666	0.212949	0.012992	0.149435	0.164721	0.049303	0.073819	0.097105	0.031209	0.202271	0.099006	-0.087954	0.236420	0.021747	0.007216	0.000503	0.225023	0.022097	0.108397	0.290762	-0.270912	0.074587	0.220434	-0.303965	0.132570	0.315256	-0.538760	0.010222	0.242919	-0.538109	-0.026929	
168	1.6800	0.019403	0.106841	0.159631	0.019839	-0.106132	0.233583	-0.003387	-0.001380	-0.003209	-0.002801	-0.145576	-0.066672	0.212916	0.012966	0.149403	0.164694	0.049294	0.073795	0.097094	0.031212	0.202253	0.098989	-0.087955	0.236397	0.021731	0.007207	0.000492	0.224997	0.022077	0.108367	0.290746	-0.270927	0.074564	0.220402	-0.303972	0.132549	0.315225	-0.538765	0.010194	0.242856	-0.538126	-0.026960	
169	1.6900	0.019383	0.106845	0.159621	0.019813	-0.106130	0.233578	-0.003470	-0.001403	-0.003237	-0.002850	-0.145575	-0.066679	0.212868	0.012942	0.149378	0.164668	0.049285	0.073775	0.097082	0.031211	0.202245	0.098975	-0.087944	0.236406	0.021719	0.007195	0.000479	0.224974	0.022055	0.108347	0.290723	-0.270944	0.074545	0.220369	-0.303983	0.132531	0.315188	-0.538775	0.010168	0.242803	-0.538139	-0.026983	
170	1.7000	0.019351	0.106845	0.159608	0.019783	-0.106122	0.233576	-0.003553	-0.001417	-0.003267	-0.002901	-0.145570	-0.066686	0.212812	0.012927	0.149367	0.164639	0.049277	0.073761	0.097053	0.031218	0.202245	0.098964	-0.087920	0.236461	0.021696	0.007182	0.000462	0.224941	0.022038	0.108326	0.290685	-0.270955	0.074533	0.220331	-0.303994	0.132517	0.315144	-0.538785	0.010147	0.242759	-0.538151	-0.026993	
171	1.7100	0.019309	0.106844	0.159588	0.019746	-0.106112	0.233574	-0.003635	-0.001420	-0.003302	-0.002954	-0.145560	-0.066697	0.212753	0.012925	0.149364	0.164600	0.049272	0.073748	0.097008	0.031233	0.202245	0.098945	-0.087893	0.236531	0.021657	0.007183	0.000444	0.224900	0.022034	0.108305	0.290634	-0.270956	0.074524	0.220283	-0.304002	0.132506	0.315095	-0.538790	0.010134	0.242743	-0.538159	-0.026989	
